<svg width="25" height="25" viewBox="0 0 25 25" fill="none" xmlns="http://www.w3.org/2000/svg">
<path d="M17.5 23.25H7.5C3.09 23.25 1.75 21.91 1.75 17.5V7.5C1.75 3.09 3.09 1.75 7.5 1.75H9C10.75 1.75 11.3 2.32 12 3.25L13.5 5.25C13.83 5.69 13.88 5.75 14.5 5.75H17.5C21.91 5.75 23.25 7.09 23.25 11.5V17.5C23.25 21.91 21.91 23.25 17.5 23.25ZM7.5 3.25C3.92 3.25 3.25 3.93 3.25 7.5V17.5C3.25 21.07 3.92 21.75 7.5 21.75H17.5C21.08 21.75 21.75 21.07 21.75 17.5V11.5C21.75 7.93 21.08 7.25 17.5 7.25H14.5C13.22 7.25 12.8 6.81 12.3 6.15L10.8 4.15C10.28 3.46 10.12 3.25 9 3.25H7.5Z" fill="#1E305C"/>
<path d="M20.5 7.63C20.09 7.63 19.75 7.29 19.75 6.88V5.5C19.75 3.92 19.08 3.25 17.5 3.25H8.5C8.09 3.25 7.75 2.91 7.75 2.5C7.75 2.09 8.09 1.75 8.5 1.75H17.5C19.92 1.75 21.25 3.08 21.25 5.5V6.88C21.25 7.29 20.91 7.63 20.5 7.63Z" fill="#1E305C"/>
</svg>
