<svg width="22" height="23" viewBox="0 0 22 23" fill="none" xmlns="http://www.w3.org/2000/svg">
<path d="M10.7426 19.1216C8.6612 19.1216 6.57976 18.7911 4.60552 18.13C3.85513 17.8709 3.28341 17.3439 3.03328 16.656C2.77421 15.9682 2.86354 15.2088 3.27447 14.5299L4.30179 12.8237C4.51619 12.4664 4.71272 11.7517 4.71272 11.3318V8.75013C4.71272 5.42698 7.41948 2.72021 10.7426 2.72021C14.0658 2.72021 16.7726 5.42698 16.7726 8.75013V11.3318C16.7726 11.7428 16.9691 12.4664 17.1835 12.8326L18.2019 14.5299C18.586 15.1731 18.6575 15.9503 18.3984 16.656C18.1393 17.3618 17.5765 17.8977 16.8708 18.13C14.9055 18.7911 12.8241 19.1216 10.7426 19.1216ZM10.7426 4.0602C8.16094 4.0602 6.0527 6.1595 6.0527 8.75013V11.3318C6.0527 11.984 5.78471 12.9487 5.45418 13.5115L4.42686 15.2178C4.23033 15.5483 4.17673 15.8967 4.29286 16.1915C4.40006 16.4952 4.66805 16.7275 5.03432 16.8526C8.7684 18.1032 12.7258 18.1032 16.4599 16.8526C16.7815 16.7454 17.0316 16.5042 17.1478 16.1826C17.2639 15.861 17.2371 15.5126 17.0584 15.2178L16.0311 13.5115C15.6916 12.9309 15.4326 11.975 15.4326 11.3229V8.75013C15.4326 6.1595 13.3333 4.0602 10.7426 4.0602Z" fill="#010101"/>
<path d="M12.4014 4.30102C12.3388 4.30102 12.2763 4.29208 12.2138 4.27422C11.9547 4.20275 11.7046 4.14915 11.4634 4.11342C10.7041 4.01515 9.97154 4.06875 9.28368 4.27422C9.03355 4.35462 8.76555 4.27422 8.59582 4.08662C8.42609 3.89902 8.37249 3.63103 8.47076 3.38983C8.83702 2.45184 9.73034 1.83545 10.7487 1.83545C11.7671 1.83545 12.6604 2.44291 13.0267 3.38983C13.116 3.63103 13.0714 3.89902 12.9016 4.08662C12.7676 4.22955 12.58 4.30102 12.4014 4.30102Z" fill="#010101"/>
<path d="M10.7458 21.1581C9.86144 21.1581 9.00385 20.8007 8.37853 20.1754C7.7532 19.5501 7.39587 18.6925 7.39587 17.8081H8.73586C8.73586 18.3352 8.95025 18.8533 9.32545 19.2285C9.70064 19.6037 10.2188 19.8181 10.7458 19.8181C11.8535 19.8181 12.7558 18.9158 12.7558 17.8081H14.0958C14.0958 19.6573 12.595 21.1581 10.7458 21.1581Z" fill="#010101"/>
</svg>
